<svg xmlns="http://www.w3.org/2000/svg" height="40" viewBox="0 -960 960 960" width="40"><path d="M320.667-160q-27 0-46.833-19.833Q254-199.666 254-226.666v-106.667h122.667V-448q-37 1.333-72.833-12.167Q268-473.667 239.333-502v-53.333h-48.666L60-686q36-38 87-58.667 51-20.666 103.667-20.666 29 0 63.166 7.666Q348-750 376.667-732.333V-800H840v530q0 46-32 78t-78 32H320.667Zm122.666-173.333h243.334V-270q0 19 12.167 31.167Q711-226.666 730-226.666t31.167-12.167Q773.334-251 773.334-270v-463.334H443.333v46.001L684-446.666v47.333h-47.333l-122-122.001-14 16.001q-13.334 14.666-27.167 23.666-13.833 9-30.167 15.667v132.667ZM220-622h86v88q15.333 10 30.667 14.667Q352-514.666 368-514.666q24.333 0 47.834-11.334 23.5-11.333 37.5-26.666l14-16.001-64.667-64.667q-31-31-69.667-48.166-38.667-17.167-82.333-17.167-24.667 0-45.334 5.333-20.667 5.334-42 14.667L220-622Zm400.001 355.334H320.667v40h310.667q-5-7-8.167-17.334-3.166-10.333-3.166-22.666Zm-299.334 40v-40 40Z"/></svg>